<svg xmlns="http://www.w3.org/2000/svg" width="102" height="102" viewBox="0 0 102 102">
    <g fill="none" fill-rule="evenodd">
        <path fill="#FFF" stroke="#DFE3E9" d="M.5.5h101v101H.5z"/>
        <path fill="#DFE3E9" stroke="#90A1B5" d="M38.5 38.5h25v25h-25z"/>
        <path stroke="#0094FF" stroke-dasharray="1,4" stroke-linecap="round" stroke-linejoin="round" stroke-width="2" d="M1 51h50v50H1V51z"/>
        <path fill="#001A33" d="M65.033 81.034v3.997h-1.358v-3.997L60 75h1.19c.121 0 .217.03.287.088.07.058.13.134.182.227l2.296 3.899c.084.163.161.316.231.459.07.142.13.285.182.43a5.2 5.2 0 0 1 .175-.43c.065-.143.138-.296.217-.459l2.289-3.899c.042-.08.1-.152.175-.217a.42.42 0 0 1 .287-.098h1.197l-3.675 6.034zM27.389 44h-1.344a.343.343 0 0 1-.242-.08.743.743 0 0 1-.143-.179l-2.688-4.214c-.037.112-.08.208-.126.287l-2.618 3.927a1.414 1.414 0 0 1-.15.178.298.298 0 0 1-.221.081h-1.26l3.451-5.152-3.311-4.879h1.351c.098 0 .17.016.217.049.047.033.089.08.126.14l2.618 4.018c.033-.098.082-.205.147-.322l2.471-3.668a.524.524 0 0 1 .133-.157.289.289 0 0 1 .182-.06h1.295l-3.325 4.816L27.389 44z"/>
        <circle cx="51" cy="51" r="3" fill="#0094FF"/>
    </g>
</svg>
