<svg xmlns="http://www.w3.org/2000/svg" width="102" height="102" viewBox="0 0 102 102">
    <g fill="none" fill-rule="evenodd">
        <g fill="#FFF" stroke="#DFE3E9">
            <path d="M.5 101.5h100.999C101.23 45.84 56.16.77.5.501V101.5z"/>
            <path stroke-width="2" d="M1 100h.962L26 76.047C18.365 68.905 10.743 67 1 67"/>
        </g>
        <path stroke="#90A1B5" stroke-dasharray="1,4" stroke-linecap="round" stroke-width="2" d="M71 30L38 64"/>
        <circle cx="12" cy="12" r="11.5" fill="#DFE3E9" stroke="#90A1B5" transform="translate(26 52)"/>
        <path stroke="#0094FF" stroke-dasharray="1,4" stroke-linecap="round" stroke-linejoin="round" stroke-width="2" d="M38 64L0 102"/>
        <path fill="#001A33" d="M68.377 61.859V63h-5.69V52.969h1.35v8.89zM12.216 57.03a2.376 2.376 0 0 0-.27-.48 2.017 2.017 0 0 0-.392-.405 1.852 1.852 0 0 0-1.159-.389c-.275 0-.537.055-.787.164-.25.11-.469.28-.658.508-.189.229-.34.518-.451.868-.113.35-.168.765-.168 1.246 0 .448.048.832.146 1.151.099.32.23.584.393.791.163.208.354.361.574.459.219.098.45.147.692.147a1.646 1.646 0 0 0 1.239-.55c.169-.184.31-.42.424-.707.114-.287.19-.626.228-1.018l.189-1.785zm2.443 4.095v.504c0 .107-.075.205-.225.294-.149.089-.356.133-.622.133-.183 0-.359-.026-.529-.077a1.525 1.525 0 0 1-.85-.637 1.88 1.88 0 0 1-.245-.581 2.97 2.97 0 0 1-.498.609 2.66 2.66 0 0 1-1.204.651 2.76 2.76 0 0 1-.643.077 2.54 2.54 0 0 1-1.989-.938 3.385 3.385 0 0 1-.595-1.106 4.66 4.66 0 0 1-.216-1.477c0-.579.08-1.102.241-1.572a3.62 3.62 0 0 1 .665-1.197 2.887 2.887 0 0 1 2.23-1.026c.252.001.488.029.71.085a2.6 2.6 0 0 1 1.113.592c.152.137.283.285.396.444l.133-.735c.056-.173.167-.259.335-.259h.742l-.385 3.787c-.009.229-.024.454-.045.675a6.53 6.53 0 0 0-.032.613c0 .205.028.38.084.521a.909.909 0 0 0 .585.556c.133.043.276.064.43.064h.414zm.707-7.021a2.237 2.237 0 0 1 1.378-2.079c.276-.117.574-.175.896-.175a2.298 2.298 0 0 1 1.625.654 2.256 2.256 0 0 1 .665 1.6c0 .308-.06.598-.179.871a2.267 2.267 0 0 1-1.211 1.197 2.26 2.26 0 0 1-.9.179c-.322 0-.62-.06-.896-.178a2.329 2.329 0 0 1-.72-.483 2.22 2.22 0 0 1-.659-1.586zm.881.007c0 .196.035.38.105.55a1.344 1.344 0 0 0 .739.742c.17.072.353.108.55.108a1.391 1.391 0 0 0 .994-.406c.126-.126.223-.274.293-.444.07-.17.105-.354.105-.55 0-.196-.034-.38-.105-.553a1.374 1.374 0 0 0-.738-.752 1.391 1.391 0 0 0-.55-.109 1.391 1.391 0 0 0-.994.41 1.374 1.374 0 0 0-.294.451c-.07.173-.105.357-.105.553z"/>
        <circle cx="38" cy="64" r="3" fill="#0094FF"/>
    </g>
</svg>
